<svg width="20" height="18" viewBox="0 0 20 18" fill="none" xmlns="http://www.w3.org/2000/svg">
<style>
*{
    fill: #2C2C2C;
}
</style>
<path d="M18.2334 9.37598C18.5029 9.52572 18.7275 9.73535 18.9072 10.0049C19.0869 10.2744 19.1768 10.5739 19.1768 10.9033V13.1045C19.1768 13.4639 19.0869 13.7783 18.9072 14.0479C18.7275 14.3174 18.5029 14.527 18.2334 14.6768V15.8447C18.2334 16.3838 18.0387 16.848 17.6494 17.2373C17.29 17.5967 16.8408 17.7764 16.3018 17.7764H8.66504V15.8447H16.3018V9.06152C16.3018 8.13314 16.1221 7.26465 15.7627 6.45605C15.4333 5.64746 14.9541 4.94368 14.3252 4.34473C13.7262 3.71582 13.0225 3.23665 12.2139 2.90723C11.4053 2.54785 10.5368 2.36816 9.6084 2.36816C8.68001 2.36816 7.81152 2.54785 7.00293 2.90723C6.19434 3.23665 5.47559 3.71582 4.84668 4.34473C4.24772 4.94368 3.76855 5.64746 3.40918 6.45605C3.07975 7.26465 2.91504 8.13314 2.91504 9.06152V14.9014H1.92676C1.41764 14.9014 0.968424 14.7217 0.579102 14.3623C0.219727 13.973 0.0400391 13.5088 0.0400391 12.9697V11.083C0.0400391 10.7236 0.114909 10.3942 0.264648 10.0947C0.444336 9.79525 0.683919 9.57064 0.983398 9.4209C0.983398 8.07324 1.20801 6.86035 1.65723 5.78223C2.13639 4.67415 2.78027 3.73079 3.58887 2.95215C4.42741 2.1735 5.35579 1.57454 6.37402 1.15527C7.39225 0.736003 8.47038 0.526367 9.6084 0.526367C10.7464 0.526367 11.8245 0.736003 12.8428 1.15527C13.891 1.57454 14.8193 2.18848 15.6279 2.99707C16.4365 3.77572 17.0654 4.7041 17.5146 5.78223C17.9938 6.86035 18.2334 8.05827 18.2334 9.37598ZM5.79004 10.0947C5.79004 10.3643 5.87988 10.6038 6.05957 10.8135C6.23926 10.9932 6.46387 11.083 6.7334 11.083C7.00293 11.083 7.22754 10.9932 7.40723 10.8135C7.58691 10.6038 7.67676 10.3643 7.67676 10.0947C7.67676 9.8252 7.58691 9.60059 7.40723 9.4209C7.22754 9.24121 7.00293 9.15137 6.7334 9.15137C6.46387 9.15137 6.23926 9.24121 6.05957 9.4209C5.87988 9.60059 5.79004 9.8252 5.79004 10.0947ZM11.54 10.0947C11.54 10.3643 11.6299 10.6038 11.8096 10.8135C11.9893 10.9932 12.2139 11.083 12.4834 11.083C12.7529 11.083 12.9775 10.9932 13.1572 10.8135C13.3369 10.6038 13.4268 10.3643 13.4268 10.0947C13.4268 9.8252 13.3369 9.60059 13.1572 9.4209C12.9775 9.24121 12.7529 9.15137 12.4834 9.15137C12.2139 9.15137 11.9893 9.24121 11.8096 9.4209C11.6299 9.60059 11.54 9.8252 11.54 10.0947ZM15.3584 8.20801C14.3701 8.20801 13.4268 8.02832 12.5283 7.66895C11.6598 7.30957 10.8812 6.81543 10.1924 6.18652C9.50358 5.52767 8.94954 4.77897 8.53027 3.94043C8.29069 5.22819 7.75163 6.36621 6.91309 7.35449C6.07454 8.34277 5.05632 9.09147 3.8584 9.60059C3.7985 8.64225 3.91829 7.78874 4.21777 7.04004C4.5472 6.26139 4.99642 5.60254 5.56543 5.06348C6.13444 4.52441 6.77832 4.12012 7.49707 3.85059C8.21582 3.55111 8.93457 3.40137 9.65332 3.40137C10.6117 3.40137 11.4951 3.611 12.3037 4.03027C13.1123 4.44954 13.7861 5.03353 14.3252 5.78223C14.8643 6.50098 15.2087 7.30957 15.3584 8.20801Z" fill="white"/>
</svg>
