<svg width="23" height="20" viewBox="0 0 23 20" fill="none" xmlns="http://www.w3.org/2000/svg">
<style>
*{
    fill: #2C2C2C;
}
</style>
<path d="M0.654297 1.55293C0.654297 1.05331 1.05624 0.651367 1.55586 0.651367H3.26507C4.0915 0.651367 4.82402 1.1322 5.16586 1.85345H20.6051C21.593 1.85345 22.3143 2.79257 22.0551 3.74673L20.5149 9.46788C20.1956 10.6474 19.125 11.4701 17.9042 11.4701H7.06665L7.2695 12.5407C7.35214 12.9652 7.72404 13.2732 8.15603 13.2732H18.986C19.4856 13.2732 19.8876 13.6752 19.8876 14.1748C19.8876 14.6744 19.4856 15.0763 18.986 15.0763H8.15603C6.85628 15.0763 5.7406 14.1522 5.50019 12.8788L3.56183 2.69866C3.53554 2.55591 3.41157 2.45449 3.26507 2.45449H1.55586C1.05624 2.45449 0.654297 2.05254 0.654297 1.55293ZM5.46262 18.0815C5.46262 17.8448 5.50926 17.6103 5.59988 17.3915C5.69049 17.1728 5.82331 16.974 5.99074 16.8065C6.15818 16.6391 6.35695 16.5063 6.57572 16.4157C6.79448 16.3251 7.02895 16.2784 7.26574 16.2784C7.50253 16.2784 7.737 16.3251 7.95577 16.4157C8.17453 16.5063 8.37331 16.6391 8.54074 16.8065C8.70818 16.974 8.84099 17.1728 8.93161 17.3915C9.02223 17.6103 9.06886 17.8448 9.06886 18.0815C9.06886 18.3183 9.02223 18.5528 8.93161 18.7716C8.84099 18.9903 8.70818 19.1891 8.54074 19.3565C8.37331 19.524 8.17453 19.6568 7.95577 19.7474C7.737 19.838 7.50253 19.8847 7.26574 19.8847C7.02895 19.8847 6.79448 19.838 6.57572 19.7474C6.35695 19.6568 6.15818 19.524 5.99074 19.3565C5.82331 19.1891 5.69049 18.9903 5.59988 18.7716C5.50926 18.5528 5.46262 18.3183 5.46262 18.0815ZM18.0845 16.2784C18.5627 16.2784 19.0213 16.4684 19.3595 16.8065C19.6976 17.1447 19.8876 17.6033 19.8876 18.0815C19.8876 18.5598 19.6976 19.0184 19.3595 19.3565C19.0213 19.6947 18.5627 19.8847 18.0845 19.8847C17.6063 19.8847 17.1476 19.6947 16.8095 19.3565C16.4713 19.0184 16.2814 18.5598 16.2814 18.0815C16.2814 17.6033 16.4713 17.1447 16.8095 16.8065C17.1476 16.4684 17.6063 16.2784 18.0845 16.2784Z" fill="white"/>
</svg>
