<svg width="20" height="20" viewBox="0 0 20 20" fill="none" xmlns="http://www.w3.org/2000/svg">
<style>
*{
    fill: #2C2C2C;
}
</style>
<path d="M13.3313 10.0347C13.3313 9.20078 13.2862 8.39688 13.2073 7.63056H6.24277C6.16013 8.39688 6.1188 9.20078 6.1188 10.0347C6.1188 10.8687 6.16388 11.6726 6.24277 12.4389H13.2073C13.29 11.6726 13.3313 10.8687 13.3313 10.0347ZM14.4132 12.4389H19.0374C19.2365 11.6688 19.3417 10.8649 19.3417 10.0347C19.3417 9.20453 19.2365 8.40064 19.0374 7.63056H14.4132C14.492 8.4044 14.5334 9.20829 14.5334 10.0347C14.5334 10.8611 14.492 11.665 14.4132 12.4389ZM18.643 13.641H14.2591C13.8835 16.0414 13.1397 18.0511 12.1818 19.3358C15.1231 18.5582 17.516 16.4245 18.6392 13.641H18.643ZM13.042 13.641H6.40805C6.6372 15.0083 6.99031 16.2179 7.42231 17.1984C7.81674 18.0849 8.25625 18.7273 8.68074 19.133C9.10147 19.5312 9.45082 19.6514 9.72505 19.6514C9.99927 19.6514 10.3486 19.5312 10.7694 19.133C11.1938 18.7273 11.6334 18.0849 12.0278 17.1984C12.4635 16.2217 12.8129 15.0121 13.042 13.641ZM5.19095 13.641H0.807108C1.93406 16.4245 4.3232 18.5582 7.26829 19.3358C6.31039 18.0511 5.5666 16.0414 5.19095 13.641ZM0.412675 12.4389H5.03693C4.95804 11.665 4.91672 10.8611 4.91672 10.0347C4.91672 9.20829 4.95804 8.4044 5.03693 7.63056H0.412675C0.213581 8.40064 0.108398 9.20453 0.108398 10.0347C0.108398 10.8649 0.213581 11.6688 0.412675 12.4389ZM7.42231 2.87482C6.98656 3.85151 6.6372 5.06111 6.40805 6.42848H13.042C12.8129 5.06111 12.4598 3.85151 12.0278 2.87482C11.6334 1.98829 11.1938 1.34593 10.7694 0.940224C10.3486 0.538279 9.99927 0.41807 9.72505 0.41807C9.45082 0.41807 9.10147 0.538277 8.68074 0.936466C8.25625 1.34217 7.81674 1.98453 7.42231 2.87107V2.87482ZM5.19095 6.42848C5.5666 4.02807 6.31039 2.01834 7.26829 0.733616C4.3232 1.51121 1.93406 3.64491 0.807108 6.42848H5.19095ZM18.643 6.42848C17.516 3.64491 15.1269 1.51121 12.1856 0.733616C13.1435 2.01834 13.8835 4.02807 14.2629 6.42848H18.643Z" fill="white"/>
</svg>
