<svg width="21" height="21" viewBox="0 0 21 21" fill="none" xmlns="http://www.w3.org/2000/svg">
<style>
*{
    fill: #2C2C2C;
}
</style>
<path d="M10.3418 11.9014C11.8336 11.9014 13.2644 11.3087 14.3193 10.2538C15.3742 9.19895 15.9668 7.76821 15.9668 6.27637C15.9668 4.78452 15.3742 3.35378 14.3193 2.29889C13.2644 1.244 11.8336 0.651367 10.3418 0.651367C8.84995 0.651367 7.41921 1.244 6.36432 2.29889C5.30943 3.35378 4.7168 4.78452 4.7168 6.27637C4.7168 7.76821 5.30943 9.19895 6.36432 10.2538C7.41921 11.3087 8.84995 11.9014 10.3418 11.9014ZM6.64258 13.1514C3.16211 13.1514 0.341797 15.9717 0.341797 19.4521C0.341797 20.1162 0.880859 20.6514 1.54102 20.6514H19.1426C19.8066 20.6514 20.3418 20.1123 20.3418 19.4521C20.3418 15.9717 17.5215 13.1514 14.041 13.1514H6.64258Z" fill="white"/>
</svg>
