<svg width="20" height="21" viewBox="0 0 20 21" fill="none" xmlns="http://www.w3.org/2000/svg">
<style>
*{
    fill: #2C2C2C;
}
</style>
<path d="M16.2476 8.78787C16.2476 10.5806 15.6657 12.2366 14.6853 13.5801L19.6299 18.5286C20.1181 19.0168 20.1181 19.8097 19.6299 20.2979C19.1417 20.7861 18.3489 20.7861 17.8607 20.2979L12.9161 15.3494C11.5725 16.3336 9.91652 16.9117 8.12381 16.9117C3.63619 16.9117 0 13.2755 0 8.78787C0 4.30025 3.63619 0.664062 8.12381 0.664062C12.6114 0.664062 16.2476 4.30025 16.2476 8.78787ZM8.12381 14.412C8.86239 14.412 9.59373 14.2666 10.2761 13.9839C10.9584 13.7013 11.5784 13.287 12.1007 12.7648C12.623 12.2425 13.0372 11.6225 13.3199 10.9402C13.6025 10.2578 13.748 9.52645 13.748 8.78787C13.748 8.04929 13.6025 7.31795 13.3199 6.63559C13.0372 5.95324 12.623 5.33323 12.1007 4.81098C11.5784 4.28873 10.9584 3.87445 10.2761 3.59181C9.59373 3.30917 8.86239 3.1637 8.12381 3.1637C7.38523 3.1637 6.65389 3.30917 5.97153 3.59181C5.28917 3.87445 4.66917 4.28873 4.14692 4.81098C3.62466 5.33323 3.21039 5.95324 2.92775 6.63559C2.64511 7.31795 2.49963 8.04929 2.49963 8.78787C2.49963 9.52645 2.64511 10.2578 2.92775 10.9402C3.21039 11.6225 3.62466 12.2425 4.14692 12.7648C4.66917 13.287 5.28917 13.7013 5.97153 13.9839C6.65389 14.2666 7.38523 14.412 8.12381 14.412Z" fill="white"/>
</svg>
